<?xml version="1.0" encoding="utf-8"?>
<!-- Generator: Adobe Illustrator 16.0.0, SVG Export Plug-In . SVG Version: 6.00 Build 0)  -->
<!DOCTYPE svg PUBLIC "-//W3C//DTD SVG 1.0//EN" "http://www.w3.org/TR/2001/REC-SVG-20010904/DTD/svg10.dtd" [
	<!ENTITY st0 "display:inline;fill:#1CC3F3;">
	<!ENTITY st1 "fill:#1CC3F3;">
	<!ENTITY st2 "font-family:'Coda';">
	<!ENTITY st3 "font-size:42.5197;">
	<!ENTITY st4 "fill-rule:evenodd;clip-rule:evenodd;fill:#1CC3F3;">
	<!ENTITY st5 "font-size:70.8661;">
	<!ENTITY st6 "fill-rule:evenodd;clip-rule:evenodd;fill:#FBFDFE;">
	<!ENTITY st7 "display:none;">
]>
<svg version="1.0" id="Layer_1" xmlns="http://www.w3.org/2000/svg" xmlns:xlink="http://www.w3.org/1999/xlink" x="0px" y="0px"
	 width="294px" height="266.46px" viewBox="0 0 294 266.46" style="enable-background:new 0 0 294 266.46;" xml:space="preserve">
<g>
	<path style="&st4;" d="M167.311,154.972c-9.369-0.274-15.134-5.137-19.013-12.572c-5.239-10.041-6.857-21.125-8.928-32.074
		c-1.61-8.511-2.779-17.147-6.158-25.212c-4.475-10.68-12.62-12.735-21.642-5.454c-5.42,4.374-8.958,10.223-12.038,16.348
		c-7.848,15.602-12.523,32.254-16.167,49.242c-1.076,5.018-5.305,6.713-9.605,4.041c-1.888-1.174-0.877-2.437-0.601-3.741
		c4.073-19.242,9.626-37.98,18.962-55.416c3.933-7.345,8.634-14.147,15.32-19.278c12.279-9.426,26.074-6.394,33.195,7.337
		c6.097,11.763,7.324,24.863,9.863,37.584c1.333,6.686,2.497,13.42,5.197,19.716c4.381,10.208,12.313,12.358,21.447,5.921
		c5.885-4.146,9.903-9.91,13.445-16.023c9.18-15.845,14.755-33.097,19.586-50.627c1.346-4.882,5.524-6.274,9.722-3.394
		c1.544,1.057,0.844,1.994,0.543,3.115c-6.165,23.022-13.639,45.519-28.141,64.876C185.959,147.819,178.236,154.579,167.311,154.972
		z"/>
</g>
<g>
	<path style="&st4;" d="M140.35,11.389c30.377,0.033,55.023,24.398,55.04,54.414c0.019,30.189-24.754,54.548-55.413,54.49
		c-30.238-0.057-55.042-24.767-54.859-54.65C85.304,35.569,109.953,11.354,140.35,11.389z M140.44,18.42
		c-26.463-0.048-47.986,21.18-48.016,47.361c-0.03,25.993,21.327,47.351,47.472,47.476c26.41,0.126,48.048-20.97,48.361-47.146
		C188.569,40.248,166.73,18.47,140.44,18.42z"/>
	<path style="&st6;" d="M140.44,18.42c26.29,0.05,48.129,21.828,47.817,47.691c-0.313,26.176-21.951,47.272-48.361,47.146
		c-26.146-0.125-47.502-21.483-47.472-47.476C92.454,39.6,113.978,18.372,140.44,18.42z M124.602,35.996
		c-1.468,0.512-4.393-1.884-4.593,2.243c-0.137,2.892,0.305,4.532,3.811,4.841c5.009,0.443,6.998,5.902,3.802,9.771
		c-1.73,2.093-4.006,3.917-6.782,2.956c-2.665-0.926-5.587-2.254-5.259-6.077c0.223-2.604-1.219-3.354-3.512-3.002
		c-1.389,0.213-3.274-0.829-3.645,1.85c-1.105,7.969,8.288,16.051,16,13.463c2.322-0.779,3.79-0.366,5.42,1.29
		c3.385,3.436,6.848,6.806,10.439,10.023c3.181,2.849,6.139,5.573,3.152,10.266c-0.276,0.433-0.306,1.146-0.205,1.68
		c0.915,4.827,7.408,10.758,12.37,11.12c1.575,0.113,4.106,1.486,4.168-1.924c0.044-2.42,0.717-5.162-3.354-5.043
		c-3.467,0.103-4.821-2.803-5.51-5.366c-0.592-2.198,0.344-4.915,2.426-6.142c2.294-1.354,4.815-2.398,7.793-0.59
		c2.511,1.525,3.238,3.555,3.479,6.087c0.305,3.189,2.75,1.825,4.369,2.008c1.229,0.137,2.552,0.292,2.77-1.779
		c0.841-7.992-8.529-15.827-16.231-13.301c-2.091,0.683-3.517,0.469-5.067-1.08c-4.556-4.542-9.201-8.995-13.871-13.418
		c-1.321-1.252-1.633-2.354-1.021-4.213C137.853,44.664,132.201,36.557,124.602,35.996z"/>
	<path style="&st4;" d="M124.602,35.996c7.599,0.561,13.251,8.667,10.948,15.662c-0.612,1.858-0.301,2.961,1.021,4.213
		c4.67,4.423,9.315,8.876,13.871,13.418c1.55,1.549,2.976,1.763,5.067,1.08c7.702-2.526,17.072,5.309,16.231,13.301
		c-0.218,2.071-1.541,1.917-2.77,1.779c-1.619-0.183-4.064,1.182-4.369-2.008c-0.24-2.533-0.968-4.563-3.479-6.087
		c-2.978-1.809-5.499-0.764-7.793,0.59c-2.082,1.228-3.018,3.944-2.426,6.142c0.688,2.563,2.043,5.469,5.51,5.366
		c4.07-0.119,3.397,2.623,3.354,5.043c-0.062,3.41-2.593,2.037-4.168,1.924c-4.962-0.361-11.455-6.292-12.37-11.12
		c-0.101-0.535-0.071-1.247,0.205-1.68c2.987-4.692,0.029-7.417-3.152-10.266c-3.591-3.217-7.054-6.587-10.439-10.023
		c-1.63-1.656-3.098-2.068-5.42-1.29c-7.712,2.588-17.105-5.494-16-13.463c0.371-2.678,2.256-1.636,3.645-1.85
		c2.293-0.352,3.735,0.399,3.512,3.002c-0.329,3.822,2.594,5.151,5.259,6.077c2.776,0.962,5.052-0.863,6.782-2.956
		c3.195-3.869,1.207-9.328-3.802-9.771c-3.506-0.309-3.947-1.949-3.811-4.841C120.209,34.112,123.134,36.508,124.602,35.996z"/>
</g>
<text transform="matrix(1 0 0 1 87.1816 214.96)" style="&st7;"><tspan x="0" y="0" style="&st0; &st2; &st5;">Fix</tspan><tspan x="-67.393" y="39.685" style="&st0; &st2; &st3;">Your Street</tspan></text>
<g>
	<path style="&st1;" d="M104.472,174.215v11.621h8.787v8.716h-8.787v20.408h-8.716v-20.408h-2.905v-8.716h2.905v-20.408h4.748h3.968
		h20.408v8.787H104.472z"/>
	<path style="&st1;" d="M136.221,214.96V179.6h6.803v35.36H136.221z"/>
	<path style="&st1;" d="M185.329,215.243l-13.038-13.038l-12.968,12.968l-4.819-4.819l12.897-12.968l-13.039-13.038l4.89-4.89
		l13.039,13.039l12.967-12.897l4.818,4.819l-12.967,12.967l13.038,13.039L185.329,215.243z"/>
	<path style="&st1;" d="M45.772,222.154v11.313v1.063v4.04h-8.93v16.16h-4.721v-16.16H23.19v-4.04v-1.063v-11.313h4.721v11.313
		h13.141v-11.313H45.772z"/>
	<path style="&st1;" d="M52.571,241.036c0-4.253,3.487-7.697,7.74-7.697c4.252,0,7.74,3.444,7.74,7.697
		c0,4.295-3.487,7.74-7.74,7.74C56.059,248.776,52.571,245.331,52.571,241.036z M56.782,241.036c0,1.956,1.573,3.572,3.53,3.572
		c1.956,0,3.529-1.616,3.529-3.572s-1.573-3.529-3.529-3.529C58.355,237.507,56.782,239.08,56.782,241.036z"/>
	<path style="&st1;" d="M89.82,233.424v13.608c0,4.21-3.274,7.612-7.484,7.612s-7.484-3.402-7.484-7.612v-13.608h3.742v13.608
		c0,1.956,1.829,3.487,3.742,3.487s3.742-1.531,3.742-3.487v-13.608H89.82z"/>
	<path style="&st1;" d="M107.295,239.335h-6.762v15.225h-3.912v-21.349h3.912v2.254h6.762V239.335z"/>
	<path style="&st1;" d="M154.068,245.076c0,5.273-4.253,9.568-9.483,9.568c-4.55,0-8.335-3.274-9.228-7.569l5.443-1.318
		c0.297,1.828,1.871,3.231,3.785,3.231c2.126,0,3.87-1.743,3.87-3.912s-1.743-3.912-3.87-3.912c-4.423,0-7.995-3.615-7.995-8.08
		c0-4.466,3.572-8.08,7.995-8.08c3.742,0,6.847,2.552,7.74,6.038l-5.443,1.318c-0.298-0.978-1.191-1.7-2.296-1.7
		c-1.318,0-2.424,1.063-2.424,2.424c0,1.36,1.106,2.424,2.424,2.424C149.815,235.508,154.068,239.803,154.068,245.076z"/>
	<path style="&st1;" d="M171.372,236.273h-5.741v21.008h-4.763v-32.447h4.763v5.74h5.741V236.273z"/>
	<path style="&st1;" d="M188.848,239.335h-6.762v15.225h-3.913v-21.349h3.913v2.254h6.762V239.335z"/>
	<path style="&st1;" d="M214.488,248.266l1.19,0.681c-1.744,3.401-5.316,5.698-9.398,5.698c-5.826,0-10.632-4.763-10.632-10.632
		c0-5.826,4.764-10.589,10.632-10.589c4.082,0,7.569,2.297,9.355,5.698l-1.275,0.681l-2.041,1.105v3.7h-12.546
		c0.34,3.742,3.147,5.911,6.55,5.911c2.551,0,4.805-1.403,5.868-3.572L214.488,248.266z M200.624,240.908h11.313
		c-1.148-2.296-3.232-3.231-5.613-3.231C203.898,237.677,201.772,238.612,200.624,240.908z"/>
	<path style="&st1;" d="M241.317,248.266l1.19,0.681c-1.743,3.401-5.315,5.698-9.398,5.698c-5.825,0-10.631-4.763-10.631-10.632
		c0-5.826,4.763-10.589,10.631-10.589c4.083,0,7.57,2.297,9.356,5.698l-1.276,0.681l-2.041,1.105v3.7h-12.545
		c0.34,3.742,3.146,5.911,6.549,5.911c2.552,0,4.806-1.403,5.868-3.572L241.317,248.266z M227.454,240.908h11.312
		c-1.148-2.296-3.231-3.231-5.613-3.231C230.729,237.677,228.602,238.612,227.454,240.908z"/>
	<path style="&st1;" d="M259.813,236.273h-5.741v21.008h-4.763v-32.447h4.763v5.74h5.741V236.273z"/>
</g>
</svg>
