<?xml version="1.0" encoding="utf-8"?>
<!-- Generator: Adobe Illustrator 16.0.0, SVG Export Plug-In . SVG Version: 6.00 Build 0)  -->
<!DOCTYPE svg PUBLIC "-//W3C//DTD SVG 1.0//EN" "http://www.w3.org/TR/2001/REC-SVG-20010904/DTD/svg10.dtd" [
	<!ENTITY st0 "display:inline;fill:#1CC3F3;">
	<!ENTITY st1 "fill:#1CC3F3;">
	<!ENTITY st2 "font-family:'Coda';">
	<!ENTITY st3 "font-size:42.5197;">
	<!ENTITY st4 "fill-rule:evenodd;clip-rule:evenodd;fill:#1CC3F3;">
	<!ENTITY st5 "opacity:0.5;">
	<!ENTITY st6 "font-size:70.8661;">
	<!ENTITY st7 "fill-rule:evenodd;clip-rule:evenodd;fill:#FBFDFE;">
	<!ENTITY st8 "display:none;">
]>
<svg version="1.0" id="Layer_1" xmlns="http://www.w3.org/2000/svg" xmlns:xlink="http://www.w3.org/1999/xlink" x="0px" y="0px"
	 width="237.5px" height="216.5px" viewBox="0 0 237.5 216.5" style="enable-background:new 0 0 237.5 216.5;" xml:space="preserve"
	>
<g style="&st5;">
	<path style="&st4;" d="M130.174,116.132c-6.272-0.184-10.131-3.438-12.728-8.416c-3.507-6.722-4.591-14.141-5.977-21.47
		c-1.078-5.697-1.86-11.479-4.122-16.877c-2.996-7.149-8.448-8.525-14.487-3.65c-3.628,2.928-5.997,6.843-8.059,10.943
		c-5.253,10.444-8.383,21.592-10.823,32.963c-0.72,3.358-3.551,4.494-6.43,2.705c-1.264-0.786-0.587-1.631-0.402-2.504
		c2.727-12.881,6.444-25.425,12.694-37.096c2.633-4.917,5.779-9.47,10.255-12.905c8.22-6.31,17.454-4.28,22.221,4.912
		c4.081,7.874,4.902,16.643,6.603,25.159c0.893,4.476,1.671,8.984,3.479,13.198c2.933,6.833,8.242,8.272,14.356,3.964
		c3.939-2.776,6.63-6.634,9.001-10.727c6.145-10.606,9.877-22.155,13.111-33.89c0.9-3.269,3.696-4.2,6.507-2.272
		c1.033,0.708,0.564,1.334,0.363,2.085c-4.127,15.412-9.13,30.471-18.837,43.429C142.658,111.344,137.488,115.869,130.174,116.132z"
		/>
</g>
<g style="&st5;">
	<path style="&st4;" d="M111.072,3.683c20.316-0.863,37.509,14.714,38.395,34.788c0.892,20.189-14.966,37.202-35.472,38.056
		c-20.224,0.843-37.532-14.96-38.28-34.951C74.963,21.458,90.743,4.545,111.072,3.683z M111.337,8.382
		C93.638,9.121,79.863,23.945,80.605,41.455c0.737,17.384,15.642,31.046,33.131,30.368c17.666-0.685,31.522-15.424,30.969-32.939
		C144.16,21.579,128.921,7.65,111.337,8.382z"/>
	<path style="&st7;" d="M111.337,8.382c17.584-0.732,32.823,13.197,33.368,30.502c0.554,17.515-13.303,32.254-30.969,32.939
		c-17.489,0.678-32.394-12.984-33.131-30.368C79.863,23.945,93.638,9.121,111.337,8.382z M101.257,20.598
		c-0.967,0.385-2.993-1.132-3.006,1.635c-0.008,1.938,0.335,3.022,2.689,3.126c3.362,0.15,4.852,3.743,2.827,6.423
		c-1.096,1.45-2.565,2.736-4.449,2.174c-1.81-0.542-3.803-1.345-3.694-3.911c0.073-1.748-0.913-2.208-2.437-1.906
		c-0.922,0.183-2.213-0.458-2.384,1.343c-0.507,5.362,6.011,10.494,11.093,8.538c1.529-0.588,2.523-0.355,3.662,0.705
		c2.363,2.199,4.778,4.352,7.273,6.399c2.21,1.813,4.268,3.549,2.407,6.773c-0.172,0.298-0.171,0.775-0.088,1.13
		c0.753,3.202,5.267,6.979,8.597,7.076c1.057,0.03,2.79,0.875,2.731-1.408c-0.041-1.62,0.329-3.473-2.39-3.275
		c-2.315,0.17-3.306-1.733-3.841-3.428c-0.46-1.453,0.087-3.296,1.443-4.178c1.495-0.973,3.151-1.745,5.195-0.622
		c1.723,0.947,2.27,2.283,2.504,3.97c0.296,2.124,1.893,1.14,2.981,1.215c0.825,0.056,1.715,0.121,1.8-1.271
		c0.329-5.369-6.166-10.336-11.243-8.422c-1.379,0.518-2.338,0.416-3.42-0.575c-3.179-2.905-6.415-5.748-9.667-8.57
		c-0.92-0.799-1.16-1.527-0.805-2.788C110.372,26.009,106.355,20.752,101.257,20.598z"/>
	<path style="&st4;" d="M101.257,20.598c5.098,0.154,9.114,5.411,7.778,10.156c-0.355,1.26-0.115,1.989,0.805,2.788
		c3.252,2.822,6.489,5.665,9.667,8.57c1.082,0.991,2.042,1.092,3.42,0.575c5.077-1.914,11.572,3.053,11.243,8.422
		c-0.085,1.392-0.975,1.327-1.8,1.271c-1.088-0.075-2.685,0.909-2.981-1.215c-0.234-1.688-0.781-3.023-2.504-3.97
		c-2.044-1.123-3.7-0.351-5.195,0.622c-1.356,0.882-1.904,2.725-1.443,4.178c0.535,1.694,1.526,3.598,3.841,3.428
		c2.718-0.198,2.349,1.655,2.39,3.275c0.059,2.282-1.674,1.438-2.731,1.408c-3.33-0.097-7.844-3.875-8.597-7.076
		c-0.083-0.354-0.084-0.832,0.088-1.13c1.861-3.225-0.196-4.961-2.407-6.773c-2.495-2.047-4.91-4.2-7.273-6.399
		c-1.139-1.06-2.133-1.293-3.662-0.705c-5.083,1.956-11.6-3.176-11.093-8.538c0.17-1.801,1.462-1.16,2.384-1.343
		c1.523-0.302,2.51,0.158,2.437,1.906c-0.108,2.565,1.885,3.369,3.694,3.911c1.884,0.562,3.354-0.724,4.449-2.174
		c2.024-2.68,0.535-6.273-2.827-6.423c-2.354-0.104-2.697-1.188-2.689-3.126C98.264,19.466,100.291,20.983,101.257,20.598z"/>
</g>
<text transform="matrix(1 0 0 1 61.6816 178)" style="&st8;"><tspan x="0" y="0" style="&st0; &st2; &st6;">Fix</tspan><tspan x="-67.393" y="39.685" style="&st0; &st2; &st3;">Your Street</tspan></text>
<g>
	<path style="&st1;" d="M64.929,114.146v14.368h10.864v10.775H64.929v25.232H54.152V139.29h-3.592v-10.775h3.592v-25.232h5.871
		h4.906h25.232v10.864H64.929z"/>
	<path style="&st1;" d="M104.183,164.522v-43.719h8.411v43.719H104.183z"/>
	<path style="&st1;" d="M164.9,164.873l-16.12-16.12l-16.034,16.033l-5.958-5.959l15.945-16.033l-16.121-16.12l6.045-6.045
		l16.122,16.121l16.031-15.946l5.958,5.959l-16.032,16.031l16.12,16.122L164.9,164.873z"/>
	<path style="&st1;" d="M31.09,164.873v11.313v1.063v4.04h-8.93v16.16h-4.721v-16.16H8.508v-4.04v-1.063v-11.313h4.721v11.313H26.37
		v-11.313H31.09z"/>
	<path style="&st1;" d="M37.889,183.755c0-4.253,3.487-7.697,7.74-7.697c4.252,0,7.74,3.444,7.74,7.697
		c0,4.295-3.487,7.74-7.74,7.74C41.376,191.495,37.889,188.05,37.889,183.755z M42.1,183.755c0,1.956,1.573,3.572,3.53,3.572
		c1.956,0,3.529-1.616,3.529-3.572s-1.573-3.529-3.529-3.529C43.673,180.226,42.1,181.799,42.1,183.755z"/>
	<path style="&st1;" d="M75.138,176.143v13.608c0,4.21-3.274,7.612-7.484,7.612s-7.484-3.402-7.484-7.612v-13.608h3.742v13.608
		c0,1.956,1.829,3.487,3.742,3.487s3.742-1.531,3.742-3.487v-13.608H75.138z"/>
	<path style="&st1;" d="M92.613,182.054h-6.762v15.225h-3.912V175.93h3.912v2.254h6.762V182.054z"/>
	<path style="&st1;" d="M121.707,197.687c0,5.612-4.526,10.183-10.093,10.183c-4.843,0-8.871-3.484-9.821-8.056l5.793-1.403
		c0.316,1.946,1.991,3.439,4.028,3.439c2.263,0,4.118-1.855,4.118-4.163c0-2.309-1.855-4.164-4.118-4.164
		c-4.707,0-8.509-3.848-8.509-8.6c0-4.753,3.802-8.6,8.509-8.6c3.982,0,7.287,2.716,8.237,6.427l-5.793,1.403
		c-0.317-1.041-1.268-1.81-2.444-1.81c-1.403,0-2.58,1.131-2.58,2.579s1.177,2.58,2.58,2.58
		C117.181,187.503,121.707,192.074,121.707,197.687z"/>
	<path style="&st1;" d="M140.124,188.317h-6.11v22.358h-5.069v-34.533h5.069v6.109h6.11V188.317z"/>
	<path style="&st1;" d="M158.723,191.576h-7.196v16.203h-4.165v-22.721h4.165v2.398h7.196V191.576z"/>
	<path style="&st1;" d="M186.012,201.081l1.267,0.724c-1.856,3.62-5.658,6.064-10.003,6.064c-6.2,0-11.314-5.068-11.314-11.314
		c0-6.201,5.069-11.27,11.314-11.27c4.345,0,8.057,2.444,9.957,6.064l-1.357,0.725l-2.172,1.176v3.938h-13.353
		c0.361,3.982,3.35,6.291,6.971,6.291c2.715,0,5.113-1.493,6.245-3.802L186.012,201.081z M171.256,193.25h12.04
		c-1.223-2.443-3.44-3.438-5.975-3.438C174.741,189.812,172.479,190.807,171.256,193.25z"/>
	<path style="&st1;" d="M214.565,201.081l1.267,0.724c-1.855,3.62-5.657,6.064-10.003,6.064c-6.199,0-11.313-5.068-11.313-11.314
		c0-6.201,5.068-11.27,11.313-11.27c4.346,0,8.058,2.444,9.958,6.064l-1.358,0.725l-2.172,1.176v3.938h-13.352
		c0.361,3.982,3.349,6.291,6.97,6.291c2.716,0,5.114-1.493,6.245-3.802L214.565,201.081z M199.811,193.25h12.039
		c-1.223-2.443-3.439-3.438-5.975-3.438C203.296,189.812,201.032,190.807,199.811,193.25z"/>
	<path style="&st1;" d="M234.249,188.317h-6.11v22.358h-5.068v-34.533h5.068v6.109h6.11V188.317z"/>
</g>
</svg>
